<svg width="92" height="88" viewBox="0 0 92 88" fill="none" xmlns="http://www.w3.org/2000/svg">
<path d="M36.4166 80.6667C31.625 80.6667 27.552 79.0625 24.1979 75.8542C20.8437 72.6458 19.1666 68.75 19.1666 64.1667C19.1666 62.2111 19.6298 60.3625 20.5562 58.6208C21.4826 56.8792 23.0319 54.9694 25.2041 52.8917C26.1625 51.975 26.9291 51.2111 27.5041 50.6C28.0791 49.9889 28.6861 49.3167 29.325 48.5833C26.0666 43.8167 23.559 38.8208 21.802 33.5958C20.0451 28.3708 19.1666 23.2833 19.1666 18.3333C19.1666 14.7889 19.8375 12.0694 21.1791 10.175C22.5208 8.28055 24.4055 7.33333 26.8333 7.33333C29.5166 7.33333 32.2958 8.58611 35.1708 11.0917C38.0458 13.5972 40.5694 16.9278 42.7416 21.0833C43.3805 22.3056 43.9715 23.5736 44.5145 24.8875C45.0576 26.2014 45.5527 27.6528 46 29.2417C46.4472 27.6528 46.9423 26.2014 47.4854 24.8875C48.0284 23.5736 48.6194 22.3056 49.2583 21.0833C51.4305 16.9278 53.9541 13.5972 56.8291 11.0917C59.7041 8.58611 62.4833 7.33333 65.1666 7.33333C67.5944 7.33333 69.4791 8.28055 70.8208 10.175C72.1625 12.0694 72.8333 14.7889 72.8333 18.3333C72.8333 23.2833 71.9548 28.3708 70.1979 33.5958C68.4409 38.8208 65.9333 43.8167 62.675 48.5833C63.3139 49.3167 63.9208 49.9889 64.4958 50.6C65.0708 51.2111 65.8375 51.975 66.7958 52.8917C68.968 54.9694 70.5173 56.8792 71.4437 58.6208C72.3701 60.3625 72.8333 62.2111 72.8333 64.1667C72.8333 68.75 71.1562 72.6458 67.802 75.8542C64.4479 79.0625 60.375 80.6667 55.5833 80.6667C52.7083 80.6667 50.3923 80.3611 48.6354 79.75L46 78.8333L43.3645 79.75C41.6076 80.3611 39.2916 80.6667 36.4166 80.6667ZM36.4166 75.1667C37.5027 75.1667 38.7805 74.9986 40.25 74.6625C41.7194 74.3264 43.2847 73.8222 44.9458 73.15C44.243 72.8444 43.6041 72.325 43.0291 71.5917C42.4541 70.8583 42.1666 70.2167 42.1666 69.6667C42.1666 69.1778 42.534 68.75 43.2687 68.3833C44.0034 68.0167 44.9138 67.8333 46 67.8333C47.0861 67.8333 47.9965 68.0167 48.7312 68.3833C49.4659 68.75 49.8333 69.1778 49.8333 69.6667C49.8333 70.2167 49.5458 70.8583 48.9708 71.5917C48.3958 72.325 47.7569 72.8444 47.0541 73.15C48.7152 73.8222 50.2805 74.3264 51.75 74.6625C53.2194 74.9986 54.4972 75.1667 55.5833 75.1667C58.7777 75.1667 61.493 74.0972 63.7291 71.9583C65.9652 69.8194 67.0833 67.2222 67.0833 64.1667C67.0833 62.8222 66.7 61.5083 65.9333 60.225C65.1666 58.9417 64.0486 57.6889 62.5791 56.4667C61.8764 55.8556 61.0937 55.1222 60.2312 54.2667C59.3687 53.4111 58.5861 52.5556 57.8833 51.7C55.8389 49.1333 54.0819 47.5139 52.6125 46.8417C51.143 46.1694 48.9388 45.8333 46 45.8333C43.0611 45.8333 40.8569 46.1694 39.3875 46.8417C37.918 47.5139 36.1611 49.1333 34.1166 51.7C33.4138 52.5556 32.6312 53.4111 31.7687 54.2667C30.9062 55.1222 30.1236 55.8556 29.4208 56.4667C27.9513 57.6889 26.8333 58.9417 26.0666 60.225C25.3 61.5083 24.9166 62.8222 24.9166 64.1667C24.9166 67.2222 26.0347 69.8194 28.2708 71.9583C30.5069 74.0972 33.2222 75.1667 36.4166 75.1667ZM40.25 61.4167C39.7388 61.4167 39.2916 61.1417 38.9083 60.5917C38.525 60.0417 38.3333 59.4 38.3333 58.6667C38.3333 57.9333 38.525 57.2917 38.9083 56.7417C39.2916 56.1917 39.7388 55.9167 40.25 55.9167C40.7611 55.9167 41.2083 56.1917 41.5916 56.7417C41.975 57.2917 42.1666 57.9333 42.1666 58.6667C42.1666 59.4 41.975 60.0417 41.5916 60.5917C41.2083 61.1417 40.7611 61.4167 40.25 61.4167ZM51.75 61.4167C51.2388 61.4167 50.7916 61.1417 50.4083 60.5917C50.025 60.0417 49.8333 59.4 49.8333 58.6667C49.8333 57.9333 50.025 57.2917 50.4083 56.7417C50.7916 56.1917 51.2388 55.9167 51.75 55.9167C52.2611 55.9167 52.7083 56.1917 53.0916 56.7417C53.475 57.2917 53.6666 57.9333 53.6666 58.6667C53.6666 59.4 53.475 60.0417 53.0916 60.5917C52.7083 61.1417 52.2611 61.4167 51.75 61.4167ZM33.2541 44.275C34.5958 43.0528 35.9215 42.1514 37.2312 41.5708C38.5409 40.9903 40.1541 40.6083 42.0708 40.425C41.7514 37.3083 41.2083 34.2681 40.4416 31.3042C39.675 28.3403 38.6847 25.6972 37.4708 23.375C36.0013 20.5028 34.3083 18.1042 32.3916 16.1792C30.475 14.2542 28.4625 12.9556 26.3541 12.2833C25.843 13.2 25.4757 14.1778 25.252 15.2167C25.0284 16.2556 24.9166 17.2944 24.9166 18.3333C24.9166 22.7333 25.6354 27.1486 27.0729 31.5792C28.5104 36.0097 30.5708 40.2417 33.2541 44.275ZM58.7458 44.275C61.4291 40.2417 63.4895 36.0097 64.927 31.5792C66.3645 27.1486 67.0833 22.7333 67.0833 18.3333C67.0833 17.2944 66.9715 16.2556 66.7479 15.2167C66.5243 14.1778 66.1569 13.2 65.6458 12.2833C63.5375 12.9556 61.525 14.2542 59.6083 16.1792C57.6916 18.1042 55.9986 20.5028 54.5291 23.375C53.3152 25.6972 52.325 28.3403 51.5583 31.3042C50.7916 34.2681 50.2486 37.3083 49.9291 40.425C51.8458 40.6083 53.459 40.9903 54.7687 41.5708C56.0784 42.1514 57.4041 43.0528 58.7458 44.275Z" fill="#815F34"/>
</svg>
