<svg width="70" height="70" viewBox="0 0 70 70" fill="none" xmlns="http://www.w3.org/2000/svg">
<rect width="70" height="70" rx="35" fill="#F7F6F5"/>
<path d="M21.1843 50.2564C20.4475 50.2564 19.8027 49.9872 19.2501 49.4487C18.6975 48.9103 18.4211 48.2821 18.4211 47.5641V20.641C18.4211 19.9231 18.6975 19.2949 19.2501 18.7564C19.8027 18.218 20.4475 17.9487 21.1843 17.9487H48.8159C49.5527 17.9487 50.1975 18.218 50.7501 18.7564C51.3027 19.2949 51.579 19.9231 51.579 20.641V47.5641C51.579 48.2821 51.3027 48.9103 50.7501 49.4487C50.1975 49.9872 49.5527 50.2564 48.8159 50.2564H21.1843ZM21.1843 47.5641H48.8159V20.641H21.1843V47.5641Z" fill="#01504A"/>
</svg>
