<svg width="40" height="40" viewBox="0 0 40 40" fill="none" xmlns="http://www.w3.org/2000/svg">
<rect width="40" height="40" rx="20" fill="#F7F6F5"/>
<path d="M18.1559 24.077L25.6624 16.6667L24.5455 15.5641L18.1559 21.8718L15.065 18.8205L13.9481 19.9231L18.1559 24.077ZM11.9481 29.2308C11.5325 29.2308 11.1689 29.0769 10.8572 28.7693C10.5455 28.4616 10.3896 28.1026 10.3896 27.6923V12.3077C10.3896 11.8975 10.5455 11.5385 10.8572 11.2308C11.1689 10.9231 11.5325 10.7693 11.9481 10.7693H27.5325C27.9481 10.7693 28.3117 10.9231 28.6234 11.2308C28.9351 11.5385 29.0909 11.8975 29.0909 12.3077V27.6923C29.0909 28.1026 28.9351 28.4616 28.6234 28.7693C28.3117 29.0769 27.9481 29.2308 27.5325 29.2308H11.9481ZM11.9481 27.6923H27.5325V12.3077H11.9481V27.6923Z" fill="#01504A"/>
</svg>
