<svg width="40" height="40" viewBox="0 0 40 40" fill="none" xmlns="http://www.w3.org/2000/svg">
<rect width="40" height="40" rx="20" fill="#F7F6F5"/>
<path d="M12.1052 28.7179C11.6841 28.7179 11.3157 28.5641 10.9999 28.2564C10.6841 27.9487 10.5262 27.5897 10.5262 27.1795V11.7949C10.5262 11.3846 10.6841 11.0256 10.9999 10.7179C11.3157 10.4103 11.6841 10.2564 12.1052 10.2564H27.8947C28.3157 10.2564 28.6841 10.4103 28.9999 10.7179C29.3157 11.0256 29.4736 11.3846 29.4736 11.7949V27.1795C29.4736 27.5897 29.3157 27.9487 28.9999 28.2564C28.6841 28.5641 28.3157 28.7179 27.8947 28.7179H12.1052ZM12.1052 27.1795H27.8947V11.7949H12.1052V27.1795Z" fill="#01504A"/>
</svg>
