<svg width="60" height="60" viewBox="0 0 60 60" fill="none" xmlns="http://www.w3.org/2000/svg">
<rect width="60" height="60" rx="30" fill="#F7F6F5"/>
<path d="M27.2337 36.1154L38.4934 25L36.8181 23.3461L27.2337 32.8077L22.5973 28.2308L20.922 29.8846L27.2337 36.1154ZM17.922 43.8461C17.2986 43.8461 16.7532 43.6154 16.2856 43.1538C15.8181 42.6923 15.5844 42.1538 15.5844 41.5385V18.4615C15.5844 17.8461 15.8181 17.3077 16.2856 16.8461C16.7532 16.3846 17.2986 16.1538 17.922 16.1538H41.2986C41.922 16.1538 42.4675 16.3846 42.935 16.8461C43.4025 17.3077 43.6363 17.8461 43.6363 18.4615V41.5385C43.6363 42.1538 43.4025 42.6923 42.935 43.1538C42.4675 43.6154 41.922 43.8461 41.2986 43.8461H17.922ZM17.922 41.5385H41.2986V18.4615H17.922V41.5385Z" fill="#01504A"/>
</svg>
