<svg width="60" height="60" viewBox="0 0 60 60" fill="none" xmlns="http://www.w3.org/2000/svg">
<rect width="60" height="60" rx="30" fill="#F7F6F5"/>
<path d="M18.1578 43.0769C17.5263 43.0769 16.9736 42.8462 16.5 42.3846C16.0263 41.9231 15.7894 41.3846 15.7894 40.7692V17.6923C15.7894 17.0769 16.0263 16.5385 16.5 16.0769C16.9736 15.6154 17.5263 15.3846 18.1578 15.3846H41.8421C42.4736 15.3846 43.0263 15.6154 43.5 16.0769C43.9736 16.5385 44.2105 17.0769 44.2105 17.6923V40.7692C44.2105 41.3846 43.9736 41.9231 43.5 42.3846C43.0263 42.8462 42.4736 43.0769 41.8421 43.0769H18.1578ZM18.1578 40.7692H41.8421V17.6923H18.1578V40.7692Z" fill="#01504A"/>
</svg>
