<svg width="70" height="70" viewBox="0 0 70 70" fill="none" xmlns="http://www.w3.org/2000/svg">
<rect width="70" height="70" rx="35" fill="#F7F6F5"/>
<path d="M31.7728 42.1346L44.9092 29.1667L42.9546 27.2372L31.7728 38.2756L26.3637 32.9359L24.4092 34.8654L31.7728 42.1346ZM20.9092 51.1539C20.1819 51.1539 19.5455 50.8846 19.0001 50.3462C18.4546 49.8077 18.1819 49.1795 18.1819 48.4615V21.5385C18.1819 20.8205 18.4546 20.1923 19.0001 19.6539C19.5455 19.1154 20.1819 18.8462 20.9092 18.8462H48.1819C48.9092 18.8462 49.5455 19.1154 50.091 19.6539C50.6364 20.1923 50.9092 20.8205 50.9092 21.5385V48.4615C50.9092 49.1795 50.6364 49.8077 50.091 50.3462C49.5455 50.8846 48.9092 51.1539 48.1819 51.1539H20.9092ZM20.9092 48.4615H48.1819V21.5385H20.9092V48.4615Z" fill="#01504A"/>
</svg>
