<svg width="77" height="78" viewBox="0 0 77 78" fill="none" xmlns="http://www.w3.org/2000/svg">
<rect width="77" height="78" rx="38.5" fill="#F7F6F5"/>
<path d="M34.95 46.95L49.4 32.5L47.25 30.35L34.95 42.65L29 36.7L26.85 38.85L34.95 46.95ZM23 57C22.2 57 21.5 56.7 20.9 56.1C20.3 55.5 20 54.8 20 54V24C20 23.2 20.3 22.5 20.9 21.9C21.5 21.3 22.2 21 23 21H53C53.8 21 54.5 21.3 55.1 21.9C55.7 22.5 56 23.2 56 24V54C56 54.8 55.7 55.5 55.1 56.1C54.5 56.7 53.8 57 53 57H23ZM23 54H53V24H23V54Z" fill="#01504A"/>
</svg>
