<svg width="45" height="45" viewBox="0 0 45 45" fill="none" xmlns="http://www.w3.org/2000/svg">
<path d="M17.8125 41.25C15.4688 41.25 13.4766 40.4297 11.8359 38.7891C10.1953 37.1484 9.375 35.1562 9.375 32.8125C9.375 31.8125 9.60156 30.8672 10.0547 29.9766C10.5078 29.0859 11.2656 28.1094 12.3281 27.0469C12.7969 26.5781 13.1719 26.1875 13.4531 25.875C13.7344 25.5625 14.0313 25.2188 14.3438 24.8438C12.75 22.4063 11.5234 19.8516 10.6641 17.1797C9.80469 14.5078 9.375 11.9063 9.375 9.375C9.375 7.5625 9.70313 6.17188 10.3594 5.20313C11.0156 4.23438 11.9375 3.75 13.125 3.75C14.4375 3.75 15.7969 4.39063 17.2031 5.67188C18.6094 6.95313 19.8437 8.65625 20.9062 10.7812C21.2187 11.4063 21.5078 12.0547 21.7734 12.7266C22.0391 13.3984 22.2812 14.1406 22.5 14.9531C22.7188 14.1406 22.9609 13.3984 23.2266 12.7266C23.4922 12.0547 23.7813 11.4063 24.0938 10.7812C25.1563 8.65625 26.3906 6.95313 27.7969 5.67188C29.2031 4.39063 30.5625 3.75 31.875 3.75C33.0625 3.75 33.9844 4.23438 34.6406 5.20313C35.2969 6.17188 35.625 7.5625 35.625 9.375C35.625 11.9063 35.1953 14.5078 34.3359 17.1797C33.4766 19.8516 32.25 22.4063 30.6563 24.8438C30.9688 25.2188 31.2656 25.5625 31.5469 25.875C31.8281 26.1875 32.2031 26.5781 32.6719 27.0469C33.7344 28.1094 34.4922 29.0859 34.9453 29.9766C35.3984 30.8672 35.625 31.8125 35.625 32.8125C35.625 35.1562 34.8047 37.1484 33.1641 38.7891C31.5234 40.4297 29.5312 41.25 27.1875 41.25C25.7812 41.25 24.6484 41.0938 23.7891 40.7812L22.5 40.3125L21.2109 40.7812C20.3516 41.0938 19.2188 41.25 17.8125 41.25ZM17.8125 38.4375C18.3437 38.4375 18.9688 38.3516 19.6875 38.1797C20.4062 38.0078 21.1719 37.75 21.9844 37.4063C21.6406 37.25 21.3281 36.9844 21.0469 36.6094C20.7656 36.2344 20.625 35.9063 20.625 35.625C20.625 35.375 20.8047 35.1562 21.1641 34.9687C21.5234 34.7812 21.9688 34.6875 22.5 34.6875C23.0312 34.6875 23.4766 34.7812 23.8359 34.9687C24.1953 35.1562 24.375 35.375 24.375 35.625C24.375 35.9063 24.2344 36.2344 23.9531 36.6094C23.6719 36.9844 23.3594 37.25 23.0156 37.4063C23.8281 37.75 24.5938 38.0078 25.3125 38.1797C26.0312 38.3516 26.6563 38.4375 27.1875 38.4375C28.75 38.4375 30.0781 37.8906 31.1719 36.7969C32.2656 35.7031 32.8125 34.375 32.8125 32.8125C32.8125 32.125 32.625 31.4531 32.25 30.7969C31.875 30.1406 31.3281 29.5 30.6094 28.875C30.2656 28.5625 29.8828 28.1875 29.4609 27.75C29.0391 27.3125 28.6563 26.875 28.3125 26.4375C27.3125 25.125 26.4531 24.2969 25.7344 23.9531C25.0156 23.6094 23.9375 23.4375 22.5 23.4375C21.0625 23.4375 19.9844 23.6094 19.2656 23.9531C18.5469 24.2969 17.6875 25.125 16.6875 26.4375C16.3437 26.875 15.9609 27.3125 15.5391 27.75C15.1172 28.1875 14.7344 28.5625 14.3906 28.875C13.6719 29.5 13.125 30.1406 12.75 30.7969C12.375 31.4531 12.1875 32.125 12.1875 32.8125C12.1875 34.375 12.7344 35.7031 13.8281 36.7969C14.9219 37.8906 16.25 38.4375 17.8125 38.4375ZM19.6875 31.4062C19.4375 31.4062 19.2187 31.2656 19.0312 30.9844C18.8437 30.7031 18.75 30.375 18.75 30C18.75 29.625 18.8437 29.2969 19.0312 29.0156C19.2187 28.7344 19.4375 28.5938 19.6875 28.5938C19.9375 28.5938 20.1563 28.7344 20.3438 29.0156C20.5313 29.2969 20.625 29.625 20.625 30C20.625 30.375 20.5313 30.7031 20.3438 30.9844C20.1563 31.2656 19.9375 31.4062 19.6875 31.4062ZM25.3125 31.4062C25.0625 31.4062 24.8437 31.2656 24.6562 30.9844C24.4687 30.7031 24.375 30.375 24.375 30C24.375 29.625 24.4687 29.2969 24.6562 29.0156C24.8437 28.7344 25.0625 28.5938 25.3125 28.5938C25.5625 28.5938 25.7813 28.7344 25.9688 29.0156C26.1563 29.2969 26.25 29.625 26.25 30C26.25 30.375 26.1563 30.7031 25.9688 30.9844C25.7813 31.2656 25.5625 31.4062 25.3125 31.4062ZM16.2656 22.6406C16.9219 22.0156 17.5703 21.5547 18.2109 21.2578C18.8516 20.9609 19.6406 20.7656 20.5781 20.6719C20.4219 19.0781 20.1563 17.5234 19.7813 16.0078C19.4063 14.4922 18.9219 13.1406 18.3281 11.9531C17.6094 10.4844 16.7812 9.25781 15.8437 8.27344C14.9062 7.28906 13.9219 6.625 12.8906 6.28125C12.6406 6.75 12.4609 7.25 12.3516 7.78125C12.2422 8.3125 12.1875 8.84375 12.1875 9.375C12.1875 11.625 12.5391 13.8828 13.2422 16.1484C13.9453 18.4141 14.9531 20.5781 16.2656 22.6406ZM28.7344 22.6406C30.0469 20.5781 31.0547 18.4141 31.7578 16.1484C32.4609 13.8828 32.8125 11.625 32.8125 9.375C32.8125 8.84375 32.7578 8.3125 32.6484 7.78125C32.5391 7.25 32.3594 6.75 32.1094 6.28125C31.0781 6.625 30.0938 7.28906 29.1563 8.27344C28.2188 9.25781 27.3906 10.4844 26.6719 11.9531C26.0781 13.1406 25.5937 14.4922 25.2187 16.0078C24.8437 17.5234 24.5781 19.0781 24.4219 20.6719C25.3594 20.7656 26.1484 20.9609 26.7891 21.2578C27.4297 21.5547 28.0781 22.0156 28.7344 22.6406Z" fill="#E8C190"/>
</svg>
