<svg width="65" height="65" viewBox="0 0 65 65" fill="none" xmlns="http://www.w3.org/2000/svg">
<path d="M25.7291 59.5833C22.3437 59.5833 19.4661 58.3984 17.0963 56.0286C14.7265 53.6589 13.5416 50.7813 13.5416 47.3958C13.5416 45.9514 13.8689 44.5859 14.5234 43.2995C15.1779 42.013 16.2725 40.6024 17.8073 39.0677C18.4843 38.3906 19.026 37.8264 19.4323 37.375C19.8385 36.9236 20.2673 36.4271 20.7187 35.8854C18.4166 32.3646 16.6449 28.6745 15.4036 24.8151C14.1623 20.9557 13.5416 17.1979 13.5416 13.5417C13.5416 10.9236 14.0156 8.91493 14.9635 7.51562C15.9114 6.11632 17.243 5.41667 18.9583 5.41667C20.8541 5.41667 22.8177 6.34201 24.8489 8.19271C26.8802 10.0434 28.6632 12.5035 30.1979 15.5729C30.6493 16.4757 31.0668 17.4123 31.4505 18.3828C31.8342 19.3533 32.184 20.4253 32.5 21.599C32.8159 20.4253 33.1658 19.3533 33.5494 18.3828C33.9331 17.4123 34.3507 16.4757 34.802 15.5729C36.3368 12.5035 38.1198 10.0434 40.151 8.19271C42.1823 6.34201 44.1458 5.41667 46.0416 5.41667C47.7569 5.41667 49.0885 6.11632 50.0364 7.51562C50.9843 8.91493 51.4583 10.9236 51.4583 13.5417C51.4583 17.1979 50.8376 20.9557 49.5963 24.8151C48.355 28.6745 46.5833 32.3646 44.2812 35.8854C44.7326 36.4271 45.1614 36.9236 45.5677 37.375C45.9739 37.8264 46.5156 38.3906 47.1927 39.0677C48.7274 40.6024 49.822 42.013 50.4765 43.2995C51.131 44.5859 51.4583 45.9514 51.4583 47.3958C51.4583 50.7813 50.2734 53.6589 47.9036 56.0286C45.5338 58.3984 42.6562 59.5833 39.2708 59.5833C37.2395 59.5833 35.6033 59.3576 34.3619 58.9063L32.5 58.2292L30.638 58.9063C29.3967 59.3576 27.7604 59.5833 25.7291 59.5833ZM25.7291 55.5208C26.4965 55.5208 27.3993 55.3967 28.4375 55.1484C29.4757 54.9002 30.5816 54.5278 31.7552 54.0313C31.2586 53.8056 30.8073 53.4219 30.401 52.8802C29.9948 52.3385 29.7916 51.8646 29.7916 51.4583C29.7916 51.0972 30.0512 50.7813 30.5703 50.5104C31.0894 50.2396 31.7326 50.1042 32.5 50.1042C33.2673 50.1042 33.9105 50.2396 34.4296 50.5104C34.9487 50.7813 35.2083 51.0972 35.2083 51.4583C35.2083 51.8646 35.0052 52.3385 34.5989 52.8802C34.1927 53.4219 33.7413 53.8056 33.2448 54.0313C34.4184 54.5278 35.5243 54.9002 36.5625 55.1484C37.6007 55.3967 38.5034 55.5208 39.2708 55.5208C41.5277 55.5208 43.4461 54.7309 45.026 53.151C46.6059 51.5712 47.3958 49.6528 47.3958 47.3958C47.3958 46.4028 47.125 45.4323 46.5833 44.4844C46.0416 43.5365 45.2517 42.6111 44.2135 41.7083C43.717 41.2569 43.164 40.7153 42.5546 40.0833C41.9453 39.4514 41.3923 38.8194 40.8958 38.1875C39.4514 36.2917 38.21 35.0955 37.1718 34.599C36.1336 34.1024 34.5763 33.8542 32.5 33.8542C30.4236 33.8542 28.8663 34.1024 27.8281 34.599C26.7899 35.0955 25.5486 36.2917 24.1041 38.1875C23.6076 38.8194 23.0546 39.4514 22.4453 40.0833C21.8359 40.7153 21.2829 41.2569 20.7864 41.7083C19.7482 42.6111 18.9583 43.5365 18.4166 44.4844C17.875 45.4323 17.6041 46.4028 17.6041 47.3958C17.6041 49.6528 18.3941 51.5712 19.9739 53.151C21.5538 54.7309 23.4722 55.5208 25.7291 55.5208ZM28.4375 45.3646C28.0763 45.3646 27.7604 45.1615 27.4895 44.7552C27.2187 44.349 27.0833 43.875 27.0833 43.3333C27.0833 42.7917 27.2187 42.3177 27.4895 41.9115C27.7604 41.5052 28.0763 41.3021 28.4375 41.3021C28.7986 41.3021 29.1145 41.5052 29.3854 41.9115C29.6562 42.3177 29.7916 42.7917 29.7916 43.3333C29.7916 43.875 29.6562 44.349 29.3854 44.7552C29.1145 45.1615 28.7986 45.3646 28.4375 45.3646ZM36.5625 45.3646C36.2013 45.3646 35.8854 45.1615 35.6145 44.7552C35.3437 44.349 35.2083 43.875 35.2083 43.3333C35.2083 42.7917 35.3437 42.3177 35.6145 41.9115C35.8854 41.5052 36.2013 41.3021 36.5625 41.3021C36.9236 41.3021 37.2395 41.5052 37.5104 41.9115C37.7812 42.3177 37.9166 42.7917 37.9166 43.3333C37.9166 43.875 37.7812 44.349 37.5104 44.7552C37.2395 45.1615 36.9236 45.3646 36.5625 45.3646ZM23.4948 32.7031C24.4427 31.8003 25.3793 31.1345 26.3046 30.7057C27.23 30.2769 28.3698 29.9948 29.7239 29.8594C29.4982 27.5573 29.1145 25.3116 28.5729 23.1224C28.0312 20.9332 27.3316 18.9809 26.4739 17.2656C25.4357 15.1441 24.2395 13.3724 22.8854 11.9505C21.5312 10.5286 20.1093 9.56944 18.6198 9.07292C18.2586 9.75 17.9991 10.4722 17.8411 11.2396C17.6831 12.0069 17.6041 12.7743 17.6041 13.5417C17.6041 16.7917 18.1119 20.053 19.1276 23.3255C20.1432 26.5981 21.5989 29.724 23.4948 32.7031ZM41.5052 32.7031C43.401 29.724 44.8567 26.5981 45.8724 23.3255C46.888 20.053 47.3958 16.7917 47.3958 13.5417C47.3958 12.7743 47.3168 12.0069 47.1588 11.2396C47.0008 10.4722 46.7413 9.75 46.3802 9.07292C44.8906 9.56944 43.4687 10.5286 42.1145 11.9505C40.7604 13.3724 39.5642 15.1441 38.526 17.2656C37.6684 18.9809 36.9687 20.9332 36.427 23.1224C35.8854 25.3116 35.5017 27.5573 35.276 29.8594C36.6302 29.9948 37.7699 30.2769 38.6953 30.7057C39.6206 31.1345 40.5573 31.8003 41.5052 32.7031Z" fill="#E8C190"/>
</svg>
